Patient4_TMGait_0pt8_01_right_36_EMG.mot
version=1
nRows=40
nColumns=33
inDegrees=no
endheader
time	1LAddLong	2LGlutMax	3LGlutMed	4LIliopsoas	5LSemiMemb	6LBicFemLong	7LRecFem	8LVastMed	9LVastLat	10LGasMed	11LTibAnt	12lTibPost	13LPeroneusLong	14LSol	15LExtDigLong	16LFlexDigLong	17RAddLong	18RGlutMax	19RGlutMed	20RIliopsoas	21RSemiMemb	22RBicFemLong	23RRecFem	24RVastMed	25RVastLat	26RGasMed	27RTibAnt	28RTibPost	29RPeroneusLong	30RSol	31RExtDigLong	32RFlexDigLong
41.14	0.014954	-0.043335	0.040436	-0.008698	0.031128	0.075836	-0.021667	-0.022888	0.009918	0.016937	0.020905	-0.008087	0.037537	0.007019	0.078125	0.000305	-0.006866	0.25101	-0.36529	0.034943	0.13443	-0.23346	-0.11475	0.075531	0.032959	-0.009003	0.04715	0.45761	0.7341	0.29022	0.000305	-0.024719
41.141	-0.003052	-0.02533	0.05127	-0.007477	0.0737	0.22522	-0.000916	-0.027771	0.078888	0.00412	0.009308	0.006561	-0.027313	0.041199	0.081635	0.005188	-0.034637	0.22705	-0.35172	0.052795	0.37338	-0.12619	-0.085754	0.08194	0.02655	-0.028839	-0.036926	0.13702	0.59433	1.4246	-0.001068	-0.018005
41.142	0.00946	-0.089264	0.033875	0.003052	0.065308	0.27466	0.051575	-0.020142	0.070496	-0.010529	-0.010834	0.000305	-0.089569	0.071716	0.050507	0.010529	-0.02533	0.22247	-0.39719	0.037231	0.20569	-0.02655	-0.079803	0.054016	0.015411	-0.077515	0.006104	-0.26215	0.36621	1.6628	-0.003052	-0.025024
41.143	0.01236	-0.20889	-0.060577	0.028076	0.022736	-0.16754	0.036621	-0.012207	0.070953	-0.011902	0.003052	-0.012054	-0.10284	0.046692	0.025482	0.016632	-0.014801	0.20142	-0.44846	0.042572	0.064087	0.13397	-0.029755	0.04303	0.015717	-0.024109	0.04715	0.19913	0.1294	1.7642	-0.001831	-0.010071
41.144	0.00946	-0.2182	-0.08255	0.006866	0.014191	-0.45914	0.059204	-0.025787	0.074005	-0.012817	-0.007172	0.005035	-0.060425	0.075989	-0.08667	0.027924	-0.007935	0.1796	-0.36057	0.048676	0.19196	0.079041	-0.00885	-0.021515	0.023651	-0.00351	0.040894	0.093536	0.048218	1.1417	-0.002747	-0.007019
41.145	0.008392	-0.31342	-0.093079	-0.006104	-0.015259	-0.47089	0.10605	-0.005646	0.075836	0.012054	0.054016	0.002289	-0.095825	0.046692	0.21225	0.019379	-0.003815	0.18723	-0.31632	0.005035	0.24353	0.029144	-0.036926	-0.001373	0.053711	0.055695	0.011749	0.08728	0.048981	0.80231	-0.002289	-0.001221
41.146	0.002441	-0.33112	-0.13489	-0.018005	-0.015411	-0.46783	0.1059	0.009003	0.074768	0.022125	0.1149	0.008087	0.097961	0.063477	0.39352	0.029755	-0.025024	0.18646	-0.40039	-0.085449	0.14969	0.067291	-0.004883	0.014954	0.06134	0.085602	0.027008	0.10162	0.069733	-0.16953	-0.002441	-0.009918
41.147	0.002136	-0.28641	-0.18738	-0.013733	0.10986	-0.41153	0.10468	0.004425	0.059204	0.034637	0.1265	-0.007477	0.099487	0.092468	0.21729	0.023193	-0.010376	0.19089	-0.47684	-0.10193	0.18402	0.11124	-0.005798	-0.00412	0.055847	0.069275	0.023804	-0.17899	0.071564	-0.28412	0.001373	-0.022278
41.148	0.017548	-0.28778	-0.15533	0.040588	0.11231	-0.30228	0.10086	-0.009308	0.15732	0.011597	0.11337	0.009613	0.45715	0.096283	-0.21912	0.051422	0.006866	0.16892	-0.38773	-0.17303	0.14984	0.11322	0.000916	-0.054932	0.049133	0.049744	-0.026093	-0.1149	0.19501	-0.20477	-0.00412	-0.018616
41.149	0.032501	-0.32089	-0.11734	0.027466	0.063171	-0.13489	0.093994	-0.010834	0.2832	-0.020905	-0.15991	0.023956	0.41229	0.18051	-0.23727	0.046387	0.05249	0.18555	-0.32105	-0.041809	0.21637	0.061493	0.018463	-0.06073	0.037231	0.042572	-0.043488	0.19882	0.35873	-0.56732	-0.00061	-0.007019
41.15	0.03067	-0.35324	-0.045166	0.024109	0.006256	-0.35248	0.099182	-0.01297	0.23468	0.010529	-0.27542	0.018463	0.010223	0.22873	-0.10696	0.057831	0.093231	0.12421	-0.25116	0.14557	0.12817	-0.11459	-0.001984	-0.075531	0.03952	0.02655	0.015259	0.026855	0.28961	-0.081787	-0.00351	-0.008087
41.151	0.010071	-0.33783	-0.009918	0.02182	-0.05722	-0.62805	0.06424	-0.013275	0.16174	0.027008	-0.2652	0.016174	-0.44571	0.18295	-0.18936	0.047607	0.07782	0.068665	-0.25269	0.10712	-0.064087	-0.18677	0.006104	-0.063934	0.059967	0.020752	0.007935	-0.051422	0.10208	0.013733	-0.002441	-0.005798
41.152	0.003815	-0.34088	0.080719	0.014954	-0.11108	-0.40451	0.075378	-0.00412	0.095062	-0.029907	-0.11276	0.016479	-0.72159	0.20691	-0.15686	0.043488	0.068054	0.023651	-0.31128	-0.092773	-0.27695	-0.26886	-0.007477	-0.067444	0.071106	0.007477	0.009308	-0.042419	-0.1239	0.065918	-0.001221	0.004578
41.153	-0.011902	-0.34424	0.10452	0.001373	-0.052185	-0.26962	0.067139	0.009613	0.076904	-0.033264	0.12161	0.033569	-0.16159	0.074921	-0.15823	0.024261	0.0354	0.01358	-0.23804	-0.24918	-0.4834	-0.3743	-0.026398	-0.010986	0.070496	-0.004272	-0.019684	-0.043182	-0.26886	0.013275	-0.001831	-0.002136
41.154	-0.026398	-0.37125	0.09552	-0.012817	0.075531	-0.15823	0.10132	0.008698	0.12695	-0.001221	0.29556	0.031128	0.12253	0.033722	-0.084686	0.030975	0.008392	-0.048828	-0.23331	-0.15396	-0.092773	-0.4483	-0.11383	0.017242	0.074768	0.025482	-0.010376	-0.016174	-0.26611	0.11978	-0.006866	-0.011292
41.155	-0.029907	-0.34042	0.071259	0.001373	0.022278	-0.084534	0.16602	0.011597	0.1326	0.027618	0.25757	0.03067	0.041351	0.016479	-0.22827	0.005188	-0.002594	-0.066986	-0.21408	0.059204	0.23956	-0.31555	-0.067291	0.015717	0.053406	0.03067	0.023499	-0.077362	-0.069733	0.15701	0.000916	-0.00946
41.156	-0.03418	-0.3215	0.047302	0.004578	-0.084991	-0.12466	0.17517	0.023804	0.09613	0.024567	0.060272	0.038605	0.22217	-0.031128	-0.4068	0.008087	-0.013428	-0.052338	-0.22278	0.2919	0.23865	-0.13245	-0.054626	-0.080261	0.041046	0.014801	0.00412	-0.34378	0.49072	0.12528	-0.001678	-0.010223
41.157	-0.029602	-0.30136	0.025024	0.016937	-0.15076	-0.15289	0.2066	0.032654	0.014801	-0.014648	-0.065613	0.035706	0.42435	-0.093384	-0.087433	0.001221	-0.020142	-0.087433	-0.069733	0.45105	0.19134	-0.050964	-0.050659	-0.023041	0.033722	-0.024414	0.023499	-0.1709	0.20859	-0.26733	-0.002136	-0.021973
41.158	-0.018768	-0.28168	0.085602	0.019531	-0.057678	-0.12772	0.17838	0.042267	-0.000305	0.037689	0.027618	0.042877	0.19714	-0.19531	-0.34515	-0.032959	-0.03479	-0.093536	-0.041046	0.2742	0.008087	-0.10223	-0.035095	0.038147	0.032043	-0.030212	0.016785	0.065002	-0.000305	-0.80215	-0.002136	-0.027924
41.159	-0.006714	-0.31464	0.11108	0.002899	0.006866	-0.080719	0.071411	0.045166	-0.023499	0.052032	0.068665	0.048065	0.34439	-0.16083	-0.031891	-0.058289	-0.023956	-0.025024	-0.11978	0.043488	-0.21454	-0.079651	0.052795	0.027618	0.028839	0.00885	-0.002747	0.049133	-0.20569	-0.70953	-0.002136	-0.025177
41.16	0.013275	-0.32944	0.20493	0.007782	0.18005	0.014801	-0.00885	0.018616	-0.14374	0.062103	0.020294	0.033417	0.27664	-0.06134	0.18982	-0.082245	-0.011139	-0.094452	-0.13367	-0.11475	0.15991	0.059357	0.12253	-0.020447	0.010376	0.019379	-0.019073	0.003967	-0.13702	0.036621	0.001526	-0.015259
41.161	0.000763	-0.27924	0.2449	0.014343	0.1651	0.11566	0.011444	0.016327	-0.16998	0.035095	-0.024872	0.033875	0.19455	0.092773	0.090485	-0.061035	0.025635	-0.10864	-0.08667	-0.090179	0.12497	0.001221	0.11002	-0.10468	0.013428	-0.000305	0.001831	-0.045776	-0.025482	0.36179	-0.008698	-0.017395
41.162	-0.005646	-0.21164	0.242	0.011444	0.03067	0.36026	-0.000763	0.001984	-0.15701	-0.044861	-0.14587	0.03891	0.21088	0.29282	0.1532	-0.071259	-0.023651	-0.16205	-0.083313	-0.029907	0.072632	-0.18051	0.14725	-0.14221	0.016174	-0.016479	0.015869	-0.054474	0.057983	0.37094	0.002747	-0.020142
41.163	-0.013123	-0.13199	0.22263	0.002441	-0.059052	0.49301	-0.081635	-0.010681	-0.070801	-0.05249	-0.14542	0.021667	0.1564	0.27359	0.21622	-0.084381	-0.027466	-0.12192	-0.10956	-0.026398	0.058899	-0.2034	0.12054	-0.18265	0.013885	-0.017853	0.006866	-0.041199	0.11215	0.21133	0.003662	-0.023956
41.164	-0.010071	-0.09552	0.43884	0.014038	-0.064697	0.42206	-0.13992	-0.031891	0.15518	-0.020142	-0.070343	0.039368	-0.44968	0.16113	0.12741	-0.093231	-0.02243	-0.12665	-0.058289	-0.042877	0.19836	-0.12329	0.13031	-0.052795	0.028076	-0.00885	0.011597	-0.046082	0.1236	-0.024872	0.002136	-0.024109
41.165	-0.010681	-0.11414	0.29892	0.022583	-0.047302	0.26947	0.009766	-0.040131	0.1593	-0.000916	-0.053558	0.027618	-0.87357	0.13214	0.10361	-0.098267	0.013123	-0.11871	-0.043945	-0.048218	-0.17838	-0.003662	0.12421	0.001373	0.055695	0.00824	-0.003815	-0.048065	0.29495	-0.034943	-0.004425	-0.012512
41.166	-0.028534	-0.10574	0.16708	0.017853	-0.055084	0.30136	0.15839	-0.030518	-0.020752	-0.007019	-0.009918	0.023193	-0.53711	0.10193	0.054932	-0.11231	0.051117	-0.093384	-0.032043	-0.049744	0.015411	-0.061951	0.02121	0.03067	0.097198	0.006561	0.001221	-0.036469	0.34714	0.091248	0.001373	-0.021973
41.167	-0.036926	-0.16205	0.036469	0.019836	-0.078735	0.23727	0.15213	-0.00885	-0.17273	0.036621	-0.023041	0.027161	-0.25146	0.059814	-0.017395	-0.10757	0.076599	-0.069122	0.000153	-0.00473	0.18906	-0.24384	0.065918	-0.014343	0.072632	-0.002747	0.015717	-0.015411	0.17777	0.12512	-0.003052	-0.022278
41.168	-0.023193	-0.29404	-0.04715	-0.000305	-0.09079	0.072174	0.14664	0.004425	-0.20233	0.014343	-0.014038	0.015259	-0.035248	0.13489	-0.036621	-0.11673	0.041046	-0.010529	-0.07782	-0.006409	0.10391	-0.37811	0.022278	-0.00824	0.056915	-0.040741	0.054626	-0.015564	-0.036926	0.010529	-0.001831	-0.016632
41.169	-0.025177	-0.35599	-0.054932	0.017395	-0.006104	-0.32974	0.14008	-0.003815	-0.17456	-0.007935	-0.009766	0.005798	-0.43488	0.1033	-0.00824	-0.10544	0.016174	-0.058289	-0.061493	-0.019989	0.000763	-0.40924	0.038605	-0.027008	0.05249	-0.067596	0.052795	-0.031281	-0.13687	-0.059509	-0.003052	-0.020294
41.17	-0.004883	-0.45273	-0.14618	-0.00946	0.050049	-0.56213	0.070801	-0.000458	-0.078735	-0.027618	-0.041809	0.009308	-0.15686	0.13748	-0.006714	-0.11261	0.010529	-0.059204	-0.049438	-0.017853	-0.032043	-0.42633	0.027924	-0.043335	0.036011	-0.10483	0.057373	-0.041962	-0.09201	-0.11749	-0.001526	-0.020752
41.171	-0.007172	-0.62118	0.04364	-0.030975	0.11902	-0.45761	0.089417	0.004883	0.092316	-0.050812	-0.077362	-0.015717	0.15915	0.15167	-0.032806	-0.10468	0.00061	-0.049438	-0.058899	-0.012512	0.006866	-0.40619	0.033264	0.004883	0.032196	-0.10742	0.024261	-0.041351	0.039063	-0.12436	-0.002594	-0.026703
41.172	-0.013123	-0.79788	-0.14938	0.003357	0.075073	-0.22751	0.071564	0.01297	0.15488	-0.085144	-0.081177	-0.013123	-0.14252	0.24262	-0.036011	-0.1004	0.001221	-0.047455	-0.062103	-0.033722	-0.039368	-0.39887	0.017548	0.065765	0.031738	-0.074158	0.014496	-0.054932	-0.07431	-0.067139	-0.00351	-0.027008
41.173	-0.006104	-0.76904	-0.14099	0.010986	0.004272	-0.031128	0.041809	0.018005	0.048218	-0.11902	-0.067902	-0.025787	-0.063324	0.26749	-0.019836	-0.075989	0.026245	0.014801	0.048981	-0.017242	-0.09201	-0.30624	0.034485	0.12848	0.033722	0.020447	-0.009918	-0.030365	-0.27512	-0.30273	-0.000763	-0.027313
41.174	0.011139	-0.66528	-0.015411	-0.007629	-0.015106	0.04303	0.055695	0.009613	-0.17136	-0.12268	-0.065308	-0.030212	-0.112	0.20371	-0.069275	-0.062408	0.063324	0.052948	0.089722	0.023956	-0.021973	-0.038147	0.034943	0.10071	0.045013	0.092163	-0.024414	-0.031281	-0.15335	-0.47211	-0.002747	-0.026855
41.175	0.00946	-0.56015	0.16007	0.015411	0.011749	0.094299	0.080109	0.021057	-0.14526	-0.14923	0.029602	-0.040283	-0.008698	0.16464	-0.11704	-0.02655	0.12756	0.046387	0.094604	0.077667	-0.00946	0.027771	0.1413	-0.030212	-0.011139	0.041656	0.017548	-0.007477	-0.20065	-0.37155	-0.000916	-0.037231
41.176	0.003815	-0.54993	0.15015	0.017853	0.030518	0.085144	-0.001373	0.049744	-0.089722	-0.13519	0.11795	-0.056	-0.15305	0.23361	-0.053406	-0.003357	0.091095	0.001831	0.068665	0.11566	-0.036926	0.023346	0.15579	-0.065918	-0.027771	0.032196	-0.005493	0.020752	-0.14755	-0.023041	0.001526	-0.031128
41.177	-0.08667	-0.48447	0.079041	0.019226	-0.003052	-0.06134	-0.16144	0.020905	-0.16892	-0.14389	0.024109	-0.066223	-0.2504	0.2179	-0.005341	0.021057	-0.060425	-0.054169	-0.029144	0.08606	-0.072632	-0.060272	0.09201	-0.063934	0	0.054474	-0.069275	0.00412	-0.10483	0.15884	-0.003052	-0.028076
41.178	0.068207	-0.40649	0.023804	0.016174	-0.065002	0.14572	-0.35477	0.008698	-0.27191	-0.13458	0.034943	-0.068207	-0.34439	0.18875	-0.13962	0.015259	-0.10956	-0.009308	0.023651	0.023956	-0.069885	-0.016022	0.11429	-0.024567	0.012207	0.029297	-0.050964	-0.02655	0.060883	-0.20218	-0.002594	-0.037231
41.179	-0.024719	-0.37994	0.049591	0.01297	-0.10346	0.23102	-0.35477	0.013733	-0.28168	-0.13901	0.10147	-0.076447	-0.32684	0.2121	-0.15228	0.050049	-0.11108	-0.040131	0.036163	0.05127	-0.071564	0.083923	0.10849	-0.048676	0.015106	-0.012817	0.017548	-0.047607	0.21027	-0.34912	-0.003357	-0.0354
